<svg xmlns="http://www.w3.org/2000/svg" width="1280" height="780" viewBox="0 0 1280 780" role="img" aria-label="NALA-DNA-Med macOS SwiftUI app preview">
  <rect width="1280" height="780" rx="24" fill="#0b0f0d"/>
  <rect x="32" y="32" width="1216" height="716" rx="18" fill="#101513" stroke="#20352a"/>
  <rect x="32" y="32" width="268" height="716" rx="18" fill="#0e1311"/>
  <circle cx="68" cy="64" r="8" fill="#ff5f57"/>
  <circle cx="94" cy="64" r="8" fill="#ffbd2e"/>
  <circle cx="120" cy="64" r="8" fill="#28c840"/>
  <text x="64" y="126" fill="#00e67a" font-family="Inter, Arial, sans-serif" font-size="25" font-weight="700">NALA-DNA-Med</text>
  <text x="64" y="158" fill="#92a99b" font-family="Inter, Arial, sans-serif" font-size="14">Local Lite / CAVEMAN</text>
  <g font-family="Inter, Arial, sans-serif" font-size="17">
    <rect x="52" y="190" width="220" height="42" rx="8" fill="#143624"/>
    <text x="74" y="217" fill="#dfffee">First Run</text>
    <text x="74" y="270" fill="#d5ded8">Dashboard</text>
    <text x="74" y="318" fill="#d5ded8">LLM-Fit</text>
    <text x="74" y="366" fill="#d5ded8">Projects</text>
    <text x="74" y="414" fill="#d5ded8">Upload Center</text>
    <text x="74" y="462" fill="#d5ded8">BioLab Demo</text>
    <text x="74" y="510" fill="#d5ded8">Resources</text>
    <text x="74" y="558" fill="#d5ded8">Support Report</text>
  </g>
  <g transform="translate(340,74)" font-family="Inter, Arial, sans-serif">
    <text x="0" y="0" fill="#f2fff8" font-size="36" font-weight="760">Research-support workspace</text>
    <text x="0" y="36" fill="#9fb5a8" font-size="18">Safety-first local AI workflows for biomedical hypotheses.</text>
    <rect x="0" y="74" width="840" height="76" rx="10" fill="#241a08" stroke="#6b5422"/>
    <text x="24" y="109" fill="#ffd76a" font-size="19" font-weight="700">Not medical advice</text>
    <text x="24" y="134" fill="#f4df9b" font-size="15">Research support only. No diagnosis, prescription, or treatment claims.</text>
    <g transform="translate(0,184)">
      <rect width="260" height="128" rx="10" fill="#121d18" stroke="#254434"/>
      <text x="20" y="34" fill="#9fb5a8" font-size="15">LLM-Fit</text>
      <text x="20" y="78" fill="#00e67a" font-size="35" font-weight="760">Kleiner</text>
      <text x="20" y="106" fill="#d5ded8" font-size="14">Disk-aware local model plan</text>
    </g>
    <g transform="translate(290,184)">
      <rect width="260" height="128" rx="10" fill="#121d18" stroke="#254434"/>
      <text x="20" y="34" fill="#9fb5a8" font-size="15">TenantShield</text>
      <text x="20" y="78" fill="#f2fff8" font-size="35" font-weight="760">Vaults</text>
      <text x="20" y="106" fill="#d5ded8" font-size="14">Project context and audit trail</text>
    </g>
    <g transform="translate(580,184)">
      <rect width="260" height="128" rx="10" fill="#121d18" stroke="#254434"/>
      <text x="20" y="34" fill="#9fb5a8" font-size="15">Resources</text>
      <text x="20" y="78" fill="#f2fff8" font-size="35" font-weight="760">Models</text>
      <text x="20" y="106" fill="#d5ded8" font-size="14">Weblink and Finder import</text>
    </g>
    <rect x="0" y="354" width="840" height="210" rx="10" fill="#111916" stroke="#254434"/>
    <text x="24" y="390" fill="#f2fff8" font-size="22" font-weight="700">Model Manager</text>
    <rect x="24" y="420" width="540" height="38" rx="7" fill="#0b0f0d" stroke="#355442"/>
    <text x="42" y="444" fill="#8fa799" font-size="14">https://huggingface.co/.../model.gguf</text>
    <rect x="584" y="420" width="110" height="38" rx="7" fill="#193e2a"/>
    <text x="606" y="444" fill="#eafff2" font-size="14">Check</text>
    <rect x="708" y="420" width="108" height="38" rx="7" fill="#00c96d"/>
    <text x="728" y="444" fill="#00170b" font-size="14" font-weight="700">Download</text>
    <text x="24" y="498" fill="#d5ded8" font-size="15">Status: Yellow - large model downloads require confirmation.</text>
    <text x="24" y="526" fill="#9fb5a8" font-size="15">Supported: GGUF, safetensors, bin, mlmodel, mlpackage.</text>
  </g>
</svg>
